<svg version="1.1" xmlns="http://www.w3.org/2000/svg" xmlns:xlink="http://www.w3.org/1999/xlink" width="400" height="400" viewBox="0 0 400 400"><defs/><g><rect fill="rgb(245,245,220)" stroke="none" x="0" y="0" width="400" height="400" transform="matrix(1 0 0 1 0 0)" fill-opacity="1"/><path fill="#FFFFFF" stroke="none" paint-order="stroke fill markers" d=" M 100 100 L 280 100 L 280 280 L 100 280 L 100 100 Z"/><g><text fill="none" stroke="rgb(0,0,0)" font-family="&quot;American Typewriter&quot;" font-size="75px" font-style="normal" font-weight="normal" text-decoration="undefined" x="142" y="185" text-anchor="start" dominant-baseline="alphabetic" transform="matrix(1 0 0 1 0 0)" stroke-opacity="1" stroke-linecap="round" stroke-miterlimit="10" stroke-width="3" stroke-dasharray="">I</text><text fill="#000000" stroke="none" font-family="&quot;American Typewriter&quot;" font-size="75px" font-style="normal" font-weight="normal" text-decoration="undefined" x="142" y="185" text-anchor="start" dominant-baseline="alphabetic" transform="matrix(1 0 0 1 0 0)">I</text></g><g><text fill="none" stroke="rgb(0,0,0)" font-family="&quot;American Typewriter&quot;" font-size="75px" font-style="normal" font-weight="normal" text-decoration="undefined" x="130" y="248" text-anchor="start" dominant-baseline="alphabetic" transform="matrix(1 0 0 1 0 0)" stroke-opacity="1" stroke-linecap="round" stroke-miterlimit="10" stroke-width="3" stroke-dasharray="">N</text><text fill="#000000" stroke="none" font-family="&quot;American Typewriter&quot;" font-size="75px" font-style="normal" font-weight="normal" text-decoration="undefined" x="130" y="248" text-anchor="start" dominant-baseline="alphabetic" transform="matrix(1 0 0 1 0 0)">N</text></g><g><text fill="none" stroke="rgb(0,0,0)" font-family="&quot;American Typewriter&quot;" font-size="75px" font-style="normal" font-weight="normal" text-decoration="undefined" x="192" y="248" text-anchor="start" dominant-baseline="alphabetic" transform="matrix(1 0 0 1 0 0)" stroke-opacity="1" stroke-linecap="round" stroke-miterlimit="10" stroke-width="3" stroke-dasharray="">Y</text><text fill="#000000" stroke="none" font-family="&quot;American Typewriter&quot;" font-size="75px" font-style="normal" font-weight="normal" text-decoration="undefined" x="192" y="248" text-anchor="start" dominant-baseline="alphabetic" transform="matrix(1 0 0 1 0 0)">Y</text></g><g><path fill="rgb(238,34,28)" stroke="none" paint-order="stroke fill markers" d=" M 210 138 C 222 112 278 148 210 190 L 210 138 C 198 112 142 148 210 190" fill-opacity="1"/></g></g></svg>