<svg version="1.1" xmlns="http://www.w3.org/2000/svg" xmlns:xlink="http://www.w3.org/1999/xlink" width="500" height="800" viewBox="0 0 500 800"><defs><linearGradient id="qoQfUwLTAlfd" x1="310px" x2="480px" y1="30px" y2="135px" gradientUnits="userSpaceOnUse"><stop offset="0" stop-color="#5C97C5"/><stop offset="1" stop-color="#3DACA1"/></linearGradient></defs><g><rect fill="rgb(72,121,80)" stroke="none" x="0" y="0" width="500" height="800" transform="matrix(1 0 0 1 0 0)" fill-opacity="0.42745098039215684"/><g><text fill="rgb(76,76,87)" stroke="none" font-family="thonburi" font-size="20px" font-style="normal" font-weight="normal" text-decoration="undefined" x="50" y="250" text-anchor="start" dominant-baseline="alphabetic" transform="matrix(1 0 0 1 0 0)" fill-opacity="1">There's always gonna be another Mountain</text></g><g><text fill="rgb(76,76,87)" stroke="none" font-family="thonburi" font-size="20px" font-style="normal" font-weight="normal" text-decoration="undefined" x="50" y="300" text-anchor="start" dominant-baseline="alphabetic" transform="matrix(1 0 0 1 0 0)" fill-opacity="1">I'm always gonna wanna make it Move</text></g><g><text fill="rgb(76,76,87)" stroke="none" font-family="thonburi" font-size="20px" font-style="normal" font-weight="normal" text-decoration="undefined" x="50" y="350" text-anchor="start" dominant-baseline="alphabetic" transform="matrix(1 0 0 1 0 0)" fill-opacity="1">Always gonna be an uphill Battle</text></g><g><text fill="rgb(76,76,87)" stroke="none" font-family="thonburi" font-size="20px" font-style="normal" font-weight="normal" text-decoration="undefined" x="50" y="400" text-anchor="start" dominant-baseline="alphabetic" transform="matrix(1 0 0 1 0 0)" fill-opacity="1">Sometimes I'm gonna have to Lose</text></g><g><text fill="rgb(76,76,87)" stroke="none" font-family="thonburi" font-size="20px" font-style="normal" font-weight="normal" text-decoration="undefined" x="50" y="450" text-anchor="start" dominant-baseline="alphabetic" transform="matrix(1 0 0 1 0 0)" fill-opacity="1">Ain't about how fast I get There</text></g><g><text fill="rgb(76,76,87)" stroke="none" font-family="thonburi" font-size="20px" font-style="normal" font-weight="normal" text-decoration="undefined" x="50" y="500" text-anchor="start" dominant-baseline="alphabetic" transform="matrix(1 0 0 1 0 0)" fill-opacity="1">Ain't about what's waiting on the</text></g><g><text fill="rgb(76,76,87)" stroke="none" font-family="thonburi" font-size="20px" font-style="normal" font-weight="normal" text-decoration="undefined" x="380" y="550" text-anchor="start" dominant-baseline="alphabetic" transform="matrix(1 0 0 1 0 0)" fill-opacity="1">Other Side </text></g><g><g><text fill="rgb(76,76,87)" stroke="none" font-family="thonburi" font-size="24px" font-style="normal" font-weight="normal" text-decoration="undefined" x="0" y="0" text-anchor="start" dominant-baseline="alphabetic" transform="matrix(0.7071067811865476 -0.7071067811865475 0.7071067811865475 0.7071067811865476 150 750)" fill-opacity="1">IT'S THE CLIMB</text></g></g><path fill="rgb(50,62,95)" stroke="none" paint-order="stroke fill markers" d=" M 45 105 L 68 40 L 126 95 Z" fill-opacity="1"/><path fill="rgb(160,209,234)" stroke="none" paint-order="stroke fill markers" d=" M 95 105 L 148 40 L 206 85 Z" fill-opacity="1"/><path fill="rgb(132,239,137)" stroke="none" paint-order="stroke fill markers" d=" M 103 125 L 178 20 L 235 105 Z" fill-opacity="1"/><path fill="rgb(82,165,157)" stroke="none" paint-order="stroke fill markers" d=" M 185 85 L 248 40 L 296 75 Z" fill-opacity="1"/><path fill="url(#qoQfUwLTAlfd)" stroke="none" paint-order="stroke fill markers" d=" M 310 130 L 350 30 L 370 100 L 460 15 L 480 135 L 310 130 L 310 130 Z"/><path fill="url(#qoQfUwLTAlfd)" stroke="none" paint-order="stroke fill markers" d=" M 250 780 L 285 660 L 370 700 L 460 560 L 480 780 L 250 780 L 250 780 Z"/></g></svg>